<?xml version="1.0" encoding="UTF-8" standalone="no"?>
<svg
  xmlns:dc="http://purl.org/dc/elements/1.1/"
  xmlns:cc="http://creativecommons.org/ns#"
  xmlns:rdf="http://www.w3.org/1999/02/22-rdf-syntax-ns#"
  xmlns="http://www.w3.org/2000/svg"
  xmlns:sodipodi="http://sodipodi.sourceforge.net/DTD/sodipodi-0.dtd"
  xmlns:inkscape="http://www.inkscape.org/namespaces/inkscape"
  viewBox="0 0 132.07001 85.37443"
  version="1.1"
  id="svg869"
  sodipodi:docname="tpu_logo_AYA_caption.svg"
  inkscape:version="0.92.4 (5da689c313, 2019-01-14)"
  width="132.07001"
  height="85.374428">
  <metadata
    id="metadata873">
    <rdf:RDF>
      <cc:Work
        rdf:about="">
        <dc:format>image/svg+xml</dc:format>
        <dc:type
          rdf:resource="http://purl.org/dc/dcmitype/StillImage"/>
        <dc:title>light_TPU_Logotip_v_odin_tsvet-02</dc:title>
      </cc:Work>
    </rdf:RDF>
  </metadata>
  <sodipodi:namedview
    pagecolor="#ffffff"
    bordercolor="#666666"
    borderopacity="1"
    objecttolerance="10"
    gridtolerance="10"
    guidetolerance="10"
    inkscape:pageopacity="0"
    inkscape:pageshadow="2"
    inkscape:window-width="1920"
    inkscape:window-height="1017"
    id="namedview871"
    showgrid="false"
    inkscape:pagecheckerboard="true"
    inkscape:zoom="3.0182234"
    inkscape:cx="84.944704"
    inkscape:cy="12.359839"
    inkscape:window-x="1912"
    inkscape:window-y="-8"
    inkscape:window-maximized="1"
    inkscape:current-layer="svg869"
    fit-margin-top="0"
    fit-margin-left="0"
    fit-margin-right="0"
    fit-margin-bottom="0"/>
  <defs
    id="defs847">
    <style
      id="style845">.cls-1 {
      fill: #fff;
    }

    .cls-2 {
      fill: #201600;
    }

    .cls-2, .cls-3 {
      fill-rule: evenodd;
    }

    .cls-3, .cls-4 {
      fill: #81b75d;
    }

    .cls-5 {
      fill: #1e1e1e;
    }</style>
  </defs>
  <title
    id="title849">light_TPU_Logotip_v_odin_tsvet-02</title>
  <g
    id="_1"
    data-name="1"
    transform="translate(-4.88,-18.808388)">
    <path
      class="cls-2"
      d="M 55.64,77.64 V 69.9 h 2.76 v -1.11 h -6.78 v 1.11 h 2.75 v 7.74 z m 5.46,-4.43 c 0,-1.8 1,-3.46 2.92,-3.46 1.92,0 2.92,1.66 2.92,3.46 0,1.8 -0.89,3.47 -2.92,3.47 -2.03,0 -2.92,-1.68 -2.92,-3.47 z m -1.35,0 c 0,2.69 1.56,4.59 4.27,4.59 2.71,0 4.26,-1.9 4.26,-4.59 0,-2.69 -1.57,-4.58 -4.28,-4.58 -2.71,0 -4.27,2 -4.27,4.58 z m 12.16,4.43 V 70 70 l 2.93,7.66 h 1.24 L 79,70 v 0 7.66 h 1.26 v -8.87 h -2.02 l -2.73,7.36 -2.78,-7.36 h -2.09 v 8.85 z M 89.37,69 a 4.71,4.71 0 0 0 -2,-0.38 4.59,4.59 0 1 0 0,9.17 5.28,5.28 0 0 0 2,-0.32 L 89.3,76.24 a 4.5,4.5 0 0 1 -1.93,0.43 3.47,3.47 0 0 1 0.06,-6.93 3.54,3.54 0 0 1 1.83,0.5 L 89.36,69 Z m 3.41,8.63 V 73.3 l 4,4.34 h 1.85 L 94.09,73 98.25,68.82 h -1.69 l -3.78,3.89 v -3.92 h -1.27 v 8.85 z m 9,0 4.22,-6.84 v 0 6.85 h 1.27 V 68.79 H 106 l -4.18,6.9 v 0 -6.9 h -1.27 v 8.85 z m 9.71,0 4.19,-6.85 v 0 6.85 H 117 v -8.84 h -1.3 l -4.19,6.9 v 0 -6.9 h -1.27 v 8.85 z m 3.65,-10.93 a 2.6,2.6 0 0 1 -1.58,0.46 2.53,2.53 0 0 1 -1.55,-0.46 l -0.18,1.12 a 4.48,4.48 0 0 0 1.73,0.35 4.57,4.57 0 0 0 1.77,-0.35 z M 24.27,92.32 h 1.27 v -8.85 h -6.78 v 8.85 H 20 v -7.74 h 4.24 v 7.74 z m 5,-4.43 c 0,-1.8 1,-3.46 2.92,-3.46 1.92,0 2.92,1.66 2.92,3.46 0,1.8 -0.89,3.47 -2.92,3.47 -2.03,0 -2.92,-1.7 -2.92,-3.47 z m -1.34,0 c 0,2.69 1.56,4.59 4.26,4.59 2.7,0 4.26,-1.9 4.26,-4.59 0,-2.69 -1.57,-4.58 -4.26,-4.58 -2.69,0 -4.19,1.96 -4.19,4.58 z M 39,92.48 c 2.27,0 2.4,-3 2.4,-5.35 v -2.55 h 3 v 7.74 h 1.27 v -8.85 h -5.5 v 3.21 c 0,1.89 -0.08,4.68 -1.36,4.68 a 2.42,2.42 0 0 1 -0.8,-0.13 v 1.09 a 2.75,2.75 0 0 0 1,0.16 z m 10.86,-0.16 4.19,-6.85 v 0 6.85 h 1.27 v -8.85 h -1.26 l -4.19,6.9 v 0 -6.9 h -1.28 v 8.85 z m 11.37,0 V 84.58 H 64 v -1.11 h -6.75 v 1.11 H 60 v 7.74 z m 9.59,0 v -1.11 h -3.65 v -2.92 h 3.36 v -1.12 h -3.36 v -2.59 h 3.69 v -1.11 h -5 v 8.85 z m 3.07,0 2.53,-3.75 2.61,3.75 h 1.6 l -3.23,-4.63 3,-4.22 h -1.47 l -2.34,3.4 -2.36,-3.4 H 72.7 l 3,4.25 -3.26,4.6 z m 9.85,0 v -4 H 88 v 4 h 1.27 V 83.47 H 88 v 3.7 h -4.22 v -3.7 h -1.27 v 8.85 z m 9.75,0 4.18,-6.85 v 0 6.85 H 99 v -8.85 h -1.3 l -4.19,6.9 v 0 -6.9 h -1.29 v 8.85 z m 11.86,-4.78 a 2.48,2.48 0 0 1 -0.7,0.09 c -1.63,0 -2.17,-1 -2.17,-2.74 v -1.42 h -1.27 v 1.58 c 0,2.49 1.26,3.7 3.44,3.7 a 4,4 0 0 0 0.7,-0.06 v 3.63 h 1.27 v -8.85 h -1.27 z m 9.1,4.78 v -1.11 h -3.65 v -2.92 h 3.36 v -1.12 h -3.36 v -2.59 h 3.69 v -1.11 h -5 v 8.85 z m 8.79,-8.62 a 4.54,4.54 0 0 0 -2,-0.39 4.41,4.41 0 0 0 -4.68,4.55 4.36,4.36 0 0 0 4.67,4.62 5.28,5.28 0 0 0 2,-0.32 l -0.07,-1.23 a 4.46,4.46 0 0 1 -1.93,0.43 3.47,3.47 0 0 1 0.06,-6.93 3.54,3.54 0 0 1 1.83,0.5 l 0.1,-1.23 z m 3.42,8.62 V 88 l 3.94,4.34 h 1.85 l -4.45,-4.69 4.16,-4.18 h -1.68 l -3.78,3.89 v -3.89 h -1.27 v 8.85 z m 9,0 4.19,-6.85 v 0 6.85 h 1.27 v -8.85 h -1.3 l -4.19,6.9 v 0 -6.9 h -1.27 v 8.85 z m 9.71,0 4.19,-6.85 v 0 6.85 h 1.27 v -8.85 h -1.31 l -4.18,6.9 v 0 -6.9 h -1.27 v 8.85 z m 3.66,-10.93 a 2.65,2.65 0 0 1 -1.59,0.47 2.53,2.53 0 0 1 -1.55,-0.47 l -0.18,1.13 a 4.72,4.72 0 0 0 1.73,0.34 4.86,4.86 0 0 0 1.78,-0.34 z M 45.66,98.15 43,103.39 v 0 l -2.58,-5.24 h -1.53 l 3.38,6.54 -0.11,0.26 a 1.34,1.34 0 0 1 -1.22,1 2.08,2.08 0 0 1 -0.61,-0.11 L 40.26,107 a 4.26,4.26 0 0 0 0.86,0.09 c 1.38,0 1.88,-1.15 2.28,-1.89 l 3.67,-7 z m 4.56,8.85 v -4 h 4.23 v 4 h 1.27 v -8.85 h -1.27 v 3.7 h -4.23 v -3.7 H 49 V 107 Z m 9.78,0 4.19,-6.85 v 0 6.85 h 1.27 v -8.85 h -1.34 l -4.18,6.9 v 0 -6.9 H 58.66 V 107 Z m 10.62,0 c 1.8,0 3.38,-0.47 3.38,-2.36 a 2.07,2.07 0 0 0 -2.06,-2.13 v 0 a 2.06,2.06 0 0 0 1.83,-2.11 c 0,-1.62 -1.27,-2.23 -3.11,-2.23 h -2.4 V 107 Z m -0.26,-4 c 1.09,0 2.29,0.19 2.29,1.56 0,1.18 -1,1.43 -2.17,1.43 h -1 v -3 z m 0.5,-3.78 c 0.75,0 1.64,0.26 1.64,1.32 0,1.3 -1,1.42 -2.27,1.42 h -0.7 V 99.19 Z M 81.62,107 v -1.11 H 77.93 V 103 h 3.36 v -1.12 h -3.36 v -2.62 h 3.69 v -1.11 h -5 V 107 Z m 4.85,-7.74 c 0.77,0 2,0.41 2,1.53 a 1.6,1.6 0 0 1 -1.77,1.56 H 85.39 V 99.26 Z M 85.39,107 v -3.54 h 1.25 c 1.58,0 3.13,-0.69 3.13,-2.66 0,-1.97 -1.51,-2.65 -3.33,-2.65 H 84.12 V 107 Z M 98,98.38 A 4.58,4.58 0 0 0 96,98 a 4.58,4.58 0 1 0 0,9.16 5.33,5.33 0 0 0 2,-0.32 v -1.23 a 4.42,4.42 0 0 1 -2,0.39 3.47,3.47 0 0 1 0.06,-6.93 3.54,3.54 0 0 1 1.83,0.5 l 0.1,-1.23 z m 3.45,8.62 4.19,-6.85 v 0 6.85 h 1.27 v -8.85 h -1.31 l -4.19,6.9 v 0 -6.9 h -1.27 V 107 Z m 11.37,0 v -7.74 h 2.75 v -1.11 h -6.77 v 1.11 h 2.75 V 107 Z m 9.59,0 v -1.11 h -3.69 V 103 h 3.36 v -1.12 h -3.36 v -2.62 h 3.69 v -1.11 h -5 V 107 Z m 5.61,0 v -7.74 h 2.75 V 98.15 H 124 v 1.11 h 2.75 V 107 Z"
      transform="translate(-13.88,-2.98)"
      id="path853"
      inkscape:connector-curvature="0"
      style="fill:#201600;fill-rule:evenodd"/>
  </g>
  <g
    id="Слой_2"
    data-name="Слой 2"
    transform="translate(-4.88,-0.808388)"/>
  <style
    type="text/css"
    id="style2249">
    .st0 {
      display: none;
    }

    .st1 {
      display: inline;
      fill: #FFFFFF;
    }

    .st2 {
      display: inline;
      fill-rule: evenodd;
      clip-rule: evenodd;
      fill: #201600;
    }

    .st3 {
      fill-rule: evenodd;
      clip-rule: evenodd;
      fill: #81B75D;
    }

    .st4 {
      fill: #81B75D;
    }

    .st5 {
      fill: #1E1E1E;
    }

    .st6 {
      fill: #0613FF;
    }

    .st7 {
      fill: #FF0808;
    }

    .st8 {
      fill: #FFFFFF;
      stroke: #FFFFFF;
      stroke-linecap: round;
      stroke-linejoin: round;
      stroke-miterlimit: 10;
    }

    .st9 {
      fill: #FFFFFF;
    }

    .st10 {
      font-family: 'MyriadPro-Regular';
    }

    .st11 {
      font-size: 6.6474px;
    }

    .st12 {
      font-size: 6.6951px;
    }
  </style>
  <g
    id="g877"
    transform="matrix(0.42468658,0,0,0.42468658,42.63,0)">
    <path
      style="fill:#81b75d;fill-rule:evenodd"
      inkscape:connector-curvature="0"
      d="M 29.626,29.555 29.744,0 0,0.047 v 29.508 z"
      id="path_1"/>
    <path
      style="fill:#81b75d"
      inkscape:connector-curvature="0"
      d="M 36.168,0 H 65.417 V 65.323 H 36.168 Z"
      id="path_2"/>
    <path
      style="fill:#81b75d"
      inkscape:connector-curvature="0"
      d="m 71.323,0 h 29.885 V 29.532 H 71.323 Z"
      id="path_3"/>
    <path
      style="fill:#212121;fill-opacity:1"
      inkscape:connector-curvature="0"
      d="m 0,35.862 h 29.744 v 64.829 H 0 Z"
      id="path_4"/>
    <path
      style="fill:#212121;fill-opacity:1"
      inkscape:connector-curvature="0"
      d="m 71.323,35.862 h 29.885 v 64.829 H 71.323 Z"
      id="path_6"/>
    <g
      transform="translate(-101.37989,-5.2123034)"
      class="st0"
      id="_1-2"
      style="display:none">
      <rect
        id="rect2253"
        height="140.5"
        width="140.5"
        class="st1"
        x="0"
        y="0"
        style="display:inline;fill:#ffffff"/>
      <path
        id="path2255"
        d="M 41.8,74.7 V 67 h 2.8 V 65.9 H 37.8 V 67 h 2.8 v 7.7 z m 5.4,-4.5 c 0,-1.8 1,-3.5 2.9,-3.5 1.9,0 2.9,1.7 2.9,3.5 0,1.8 -0.9,3.5 -2.9,3.5 -2,0 -2.9,-1.7 -2.9,-3.5 z m -1.3,0 c 0,2.7 1.6,4.6 4.3,4.6 2.7,0 4.3,-1.9 4.3,-4.6 0,-2.7 -1.6,-4.6 -4.3,-4.6 -2.7,0 -4.4,2 -4.3,4.6 z M 58,74.7 V 67 67 l 2.9,7.7 h 1.2 L 65,67 v 0 7.7 h 1.3 v -8.9 h -2 l -2.7,7.4 -2.8,-7.4 h -2.1 v 8.8 H 58 Z M 75.5,66 c -0.6,-0.3 -1.3,-0.4 -2,-0.4 -2.5,-0.1 -4.7,1.8 -4.8,4.4 -0.1,2.5 1.8,4.7 4.4,4.8 0.1,0 0.3,0 0.4,0 0.7,0 1.4,-0.1 2,-0.3 l -0.1,-1.2 c -0.6,0.3 -1.3,0.4 -1.9,0.4 -1.9,-0.1 -3.4,-1.8 -3.2,-3.7 0.1,-1.8 1.5,-3.2 3.3,-3.3 0.6,0 1.3,0.2 1.8,0.5 z m 3.4,8.6 v -4.3 l 4,4.3 h 1.8 L 80.2,70 84.4,65.8 h -1.7 l -3.8,3.9 v -3.9 h -1.3 v 8.8 z m 9,0 4.2,-6.8 v 0 6.8 h 1.3 v -8.8 h -1.3 l -4.2,6.9 v 0 -6.9 h -1.3 v 8.8 z m 9.7,0 4.2,-6.8 v 0 6.8 h 1.3 v -8.8 h -1.3 l -4.2,6.9 v 0 -6.9 h -1.3 v 8.8 z m 3.7,-10.9 c -0.5,0.3 -1,0.5 -1.6,0.5 -0.6,0 -1.1,-0.1 -1.6,-0.5 L 98,64.8 c 0.5,0.2 1.1,0.3 1.7,0.3 0.6,0 1.2,-0.1 1.8,-0.3 0,0 -0.2,-1.1 -0.2,-1.1 z M 10.4,89.3 h 1.3 V 80.5 H 4.9 v 8.8 h 1.2 v -7.7 h 4.2 z m 5,-4.4 c 0,-1.8 1,-3.5 2.9,-3.5 1.9,0 2.9,1.7 2.9,3.5 0,1.8 -0.9,3.5 -2.9,3.5 -2,0 -2.9,-1.7 -2.9,-3.5 z m -1.3,0 c 0,2.7 1.6,4.6 4.3,4.6 2.7,0 4.3,-1.9 4.3,-4.6 0,-2.7 -1.6,-4.6 -4.3,-4.6 -2.7,0 -4.3,2 -4.3,4.6 z m 11,4.6 c 2.3,0 2.4,-3 2.4,-5.3 v -2.6 h 3 v 7.7 h 1.3 v -8.8 h -5.5 v 3.2 c 0,1.9 -0.1,4.7 -1.4,4.7 -0.3,0 -0.5,0 -0.8,-0.1 v 1.1 c 0.4,0.1 0.7,0.1 1,0.1 z M 36,89.3 40.2,82.5 v 0 6.8 h 1.3 V 80.5 H 40.2 L 36,87.4 v 0 -6.9 h -1.3 v 8.8 z m 11.3,0 v -7.7 h 2.8 v -1.1 h -6.8 v 1.1 h 2.8 v 7.7 z m 9.6,0 v -1.1 h -3.7 v -2.9 h 3.4 V 84.2 H 53.2 V 81.6 H 57 v -1.1 h -5 v 8.8 z m 3.1,0 2.5,-3.8 2.6,3.8 h 1.6 l -3.2,-4.6 3,-4.2 H 65 l -2.3,3.4 -2.4,-3.4 h -1.5 l 3,4.3 -3.3,4.6 H 60 Z m 9.9,0 v -4 h 4.3 v 4 h 1.3 v -8.8 h -1.3 v 3.7 H 70 v -3.7 h -1.3 v 8.8 z m 9.7,0 4.2,-6.8 v 0 6.8 h 1.3 v -8.8 h -1.3 l -4.2,6.9 v 0 -6.9 h -1.3 v 8.8 z m 11.9,-4.7 c -0.2,0.1 -0.5,0.1 -0.7,0.1 -1.6,0 -2.2,-1 -2.2,-2.7 v -1.4 h -1.3 v 1.6 c 0,2.5 1.3,3.7 3.4,3.7 0.2,0 0.5,0 0.7,-0.1 v 3.6 h 1.3 v -8.8 h -1.3 c 0.1,-0.1 0.1,4 0.1,4 z m 9.1,4.7 V 88.2 H 97 v -2.9 h 3.4 V 84.2 H 97 v -2.6 h 3.7 v -1.1 h -5 v 8.8 z m 8.8,-8.6 c -0.6,-0.3 -1.3,-0.4 -2,-0.4 -2.4,-0.2 -4.5,1.7 -4.7,4.1 0,0.1 0,0.3 0,0.4 -0.2,2.4 1.7,4.5 4.1,4.6 0.2,0 0.4,0 0.6,0 0.7,0 1.4,-0.1 2,-0.3 l -0.1,-1.2 c -0.6,0.3 -1.3,0.4 -1.9,0.4 -1.9,-0.1 -3.4,-1.8 -3.2,-3.7 0.1,-1.8 1.5,-3.2 3.3,-3.3 0.6,0 1.3,0.2 1.8,0.5 z m 3.4,8.6 V 85 l 3.9,4.3 h 1.9 l -4.4,-4.7 4.2,-4.2 h -1.7 l -3.8,3.9 v -3.9 h -1.3 v 8.8 h 1.2 z m 9,0 4.2,-6.8 v 0 6.8 h 1.3 V 80.5 H 126 l -4.2,6.9 v 0 -6.9 h -1.3 v 8.8 z m 9.7,0 4.2,-6.8 v 0 6.8 h 1.3 v -8.8 h -1.3 l -4.2,6.9 v 0 -6.9 h -1.3 v 8.8 z m 3.7,-10.9 c -0.5,0.3 -1,0.5 -1.6,0.5 -0.6,0 -1.1,-0.1 -1.6,-0.5 l -0.2,1.1 c 0.6,0.2 1.1,0.3 1.7,0.3 0.6,0 1.2,-0.1 1.8,-0.3 z m -103.4,16.8 -2.7,5.2 v 0 L 26.5,95.2 H 25 l 3.4,6.5 -0.1,0.3 c -0.1,0.6 -0.6,1 -1.2,1 -0.2,0 -0.4,0 -0.6,-0.1 l -0.1,1.2 c 0.3,0.1 0.6,0.1 0.9,0.1 1.4,0 1.9,-1.2 2.3,-1.9 l 3.7,-7 z m 4.5,8.8 v -4 h 4.2 v 4 h 1.3 v -8.8 h -1.3 v 3.7 h -4.2 v -3.7 h -1.2 v 8.8 z m 9.8,0 4.2,-6.8 v 0 6.8 h 1.3 v -8.8 h -1.3 l -4.2,6.9 v 0 -6.9 h -1.3 v 8.8 z m 10.6,0 c 1.8,0 3.4,-0.5 3.4,-2.4 0,-1.1 -0.9,-2.1 -2,-2.1 0,0 0,0 -0.1,0 v 0 c 1.1,-0.1 1.9,-1 1.8,-2.1 0,-1.6 -1.3,-2.2 -3.1,-2.2 h -2.4 v 8.8 z m -0.2,-4 c 1.1,0 2.3,0.2 2.3,1.6 0,1.2 -1,1.4 -2.2,1.4 h -1 v -3 z M 57,96.2 c 0.8,0 1.6,0.3 1.6,1.3 0,1.3 -1,1.4 -2.3,1.4 h -0.7 v -2.8 z m 10.7,7.8 v -1.1 H 64 V 100 h 3.4 V 98.9 H 64 v -2.6 h 3.7 v -1.1 h -5 v 8.8 z m 4.9,-7.7 c 0.8,0 2,0.4 2,1.5 0,0.9 -0.7,1.6 -1.6,1.6 0,0 -0.1,0 -0.1,0 h -1.3 v -3.1 z m -1.1,7.7 v -3.5 h 1.3 c 1.6,0 3.1,-0.7 3.1,-2.7 0,-2 -1.5,-2.7 -3.3,-2.7 h -2.3 v 8.9 z m 12.6,-8.6 c -0.6,-0.3 -1.3,-0.4 -2,-0.4 -2.5,0 -4.6,2.1 -4.6,4.6 0,2.5 2.1,4.6 4.6,4.6 0.7,0 1.4,-0.1 2,-0.3 v -1.2 c -0.6,0.3 -1.3,0.4 -2,0.4 -1.9,-0.1 -3.4,-1.8 -3.2,-3.7 0.1,-1.8 1.5,-3.2 3.3,-3.3 0.6,0 1.3,0.2 1.8,0.5 z m 3.5,8.6 4.2,-6.8 v 0 6.8 H 93 v -8.8 h -1.3 l -4.2,6.9 v 0 -6.9 h -1.3 v 8.8 z m 11.3,0 v -7.7 h 2.8 v -1.1 h -6.8 v 1.1 h 2.8 v 7.7 z m 9.6,0 v -1.1 h -3.7 V 100 h 3.4 v -1.1 h -3.4 v -2.6 h 3.7 v -1.1 h -5 v 8.8 z m 5.6,0 v -7.7 h 2.8 v -1.1 h -6.8 v 1.1 h 2.8 v 7.7 z"
        class="st2"
        inkscape:connector-curvature="0"
        style="clip-rule:evenodd;display:inline;fill:#201600;fill-rule:evenodd"/>
    </g>
    <polygon
      transform="matrix(2.2327821,0,0,2.2327821,-104.274,-38.411883)"
      style="fill:#469ddb;fill-opacity:1"
      class="st6"
      points="69.6,54.9 62.9,61.6 62.9,49.2 75.3,49.2 "
      id="polygon2266"/>
    <polygon
      transform="matrix(2.2176612,0,0,2.2176612,-101.57289,-35.917932)"
      style="fill:#e1444a;fill-opacity:1"
      class="st7"
      points="68.5,55.9 75.3,49.2 75.3,61.6 62.9,61.6 "
      id="polygon2268"/>
    <text
      y="84.1353"
      x="37.170483"
      style="font-size:15.67982197px;font-family:MyriadPro-Regular;fill:#ffffff;stroke-width:2.35879016"
      class="st9 st10 st11"
      id="text2274">А
    </text>
    <text
      y="97.370476"
      x="52.72364"
      style="font-size:15.79233646px;font-family:MyriadPro-Regular;fill:#ffffff;stroke-width:2.35879016"
      class="st9 st10 st12"
      id="text2276">Я
    </text>
  </g>
</svg>
